<?xml version="1.0" standalone="no"?>
<!DOCTYPE svg PUBLIC "-//W3C//DTD SVG 20010904//EN"
 "http://www.w3.org/TR/2001/REC-SVG-20010904/DTD/svg10.dtd">
<svg version="1.0" xmlns="http://www.w3.org/2000/svg"
 width="64.000000pt" height="70.000000pt" viewBox="0 0 64.000000 70.000000"
 preserveAspectRatio="xMidYMid meet">

<g transform="translate(0.000000,70.000000) scale(0.100000,-0.100000)"
fill="#000000" stroke="none">
<path d="M200 690 c0 -5 -7 -10 -16 -10 -36 0 -44 -25 -44 -134 l0 -106 30 0
c17 0 30 -4 30 -10 0 -5 -12 -10 -26 -10 -37 0 -54 -22 -54 -72 0 -32 -5 -47
-20 -58 -18 -13 -20 -26 -20 -122 l0 -108 29 0 c16 0 32 6 35 13 5 9 7 9 12 0
8 -18 360 -18 368 0 5 9 7 9 12 0 3 -7 19 -13 35 -13 l29 0 0 108 c0 96 -2
109 -20 122 -15 11 -20 26 -20 58 0 50 -17 72 -54 72 -14 0 -26 5 -26 10 0 6
14 10 30 10 l30 0 0 106 c0 109 -8 134 -44 134 -9 0 -16 5 -16 10 0 6 -53 10
-140 10 -87 0 -140 -4 -140 -10z m280 -20 c0 -5 9 -10 20 -10 19 0 20 -7 20
-100 0 -60 -4 -100 -10 -100 -5 0 -10 9 -10 20 0 16 -7 20 -30 20 -23 0 -30
-4 -30 -20 0 -16 -7 -20 -30 -20 -23 0 -30 4 -30 20 0 17 -7 20 -40 20 -33 0
-40 -3 -40 -20 0 -16 -7 -20 -30 -20 -23 0 -30 4 -30 20 0 16 -7 20 -30 20
-23 0 -30 -4 -30 -20 0 -11 -4 -20 -10 -20 -6 0 -10 40 -10 100 0 93 1 100 20
100 11 0 20 5 20 10 0 6 53 10 140 10 87 0 140 -4 140 -10z m-80 -240 c0 -6
-27 -10 -60 -10 -33 0 -60 4 -60 10 0 6 27 10 60 10 33 0 60 -4 60 -10z m-140
-20 c0 -6 33 -10 80 -10 47 0 80 4 80 10 0 6 9 10 20 10 11 0 20 -4 20 -10 0
-5 18 -10 40 -10 l40 0 0 -110 c0 -60 -2 -110 -5 -110 -3 0 -17 11 -30 25 -30
29 -32 55 -5 55 18 0 20 7 20 60 l0 60 -30 0 c-16 0 -30 5 -30 10 0 6 -9 10
-20 10 -11 0 -20 -4 -20 -10 0 -6 -33 -10 -80 -10 -47 0 -80 4 -80 10 0 6 -9
10 -20 10 -11 0 -20 -4 -20 -10 0 -5 -13 -10 -30 -10 -30 0 -30 0 -30 -56 0
-52 3 -58 41 -94 l40 -39 -55 -56 c-31 -30 -62 -55 -71 -55 -29 0 -15 32 36
81 28 28 49 53 45 56 -3 3 -14 -4 -25 -15 -10 -12 -21 -22 -25 -22 -3 0 -6 50
-6 110 l0 110 40 0 c22 0 40 5 40 10 0 6 9 10 20 10 11 0 20 -4 20 -10z m56
-155 l25 -25 -26 -25 -25 -26 -25 25 -26 26 23 24 c13 14 24 25 26 25 2 1 14
-10 28 -24z m144 -1 c0 -18 18 -42 60 -84 59 -58 75 -90 45 -90 -17 0 -165
144 -165 160 0 17 24 39 43 40 12 0 17 -8 17 -26z m-54 -48 c21 -22 17 -26
-26 -26 -43 0 -47 3 -27 25 16 18 35 19 53 1z m-122 -58 c5 -10 7 -10 12 0 8
18 151 16 170 -2 8 -8 14 -17 14 -20 0 -3 -63 -6 -140 -6 -77 0 -140 2 -140 5
0 29 72 48 84 23z m236 -58 c0 -6 -67 -10 -180 -10 -113 0 -180 4 -180 10 0 6
67 10 180 10 113 0 180 -4 180 -10z"/>
<path d="M193 605 c-23 -26 -15 -45 17 -45 27 0 30 -3 30 -30 0 -27 3 -30 30
-30 27 0 30 3 30 30 0 28 2 30 40 30 38 0 40 -2 40 -30 0 -27 3 -30 30 -30 27
0 30 3 30 30 0 27 3 30 30 30 33 0 40 21 16 46 -25 24 -46 17 -46 -16 0 -27
-3 -30 -30 -30 -27 0 -30 3 -30 30 0 28 -2 30 -40 30 -38 0 -40 -2 -40 -30 0
-27 -3 -30 -30 -30 -27 0 -30 3 -30 30 0 33 -25 41 -47 15z"/>
</g>
</svg>
